# xmcd
#
# Track frame offsets: 
#        150
#        14802
#        18587
#        32741
#        46515
#        66672
#        84793
#        108417
#        121398
#        139125
#        154984
#        169624
#        187231
#        223406
#        232563
#        258782
#        267223
#
# Disc length: 3798 seconds
#
# Revision: 0
# Processed by: cddbd v1.5.2PL0 Copyright (c) Steve Scherf et al.
# Submitted via: ExactAudioCopyFreeDBPlugin 1.0
#
DISCID=eb0ed411
DTITLE=Michael Bloomfield - CD3：Last Licks
DYEAR=2014
DGENRE=Blues
TTITLE0=I'm Glad I m Jewish (Live)
TTITLE1=Men's Room - Spoken Word Segment from McCabe's (Live)
TTITLE2=Don't You Lie to Me (Live)
TTITLE3=Muddy Waters - Can't Lose What You Ain't Never Had (Live)
TTITLE4=Gypsy Good Time (Live)
TTITLE5=Janis Joplin - One Good Man
TTITLE6=It's About Time (Live)
TTITLE7=Carmelita Skiffle (Live)
TTITLE8=Darktown Strutters Ball (Live)
TTITLE9=Don t Think About It Baby
TTITLE10=Jockey Blues／Old Folks Boogie (Live)
TTITLE11=A-Flat Boogaloo (Live)
TTITLE12=Glamour Girl (Live)
TTITLE13=Bob Dylan - Spoken Intro
TTITLE14=Bob Dylan - The Groom's Still Waiting at the Altar (Live)
TTITLE15=Hymn Time (Live Excerpt)
TTITLE16=Hidden Track (They Just Don't Make 'Em Like That Anymore)
EXTD=
EXTT0=
EXTT1=
EXTT2=
EXTT3=
EXTT4=
EXTT5=
EXTT6=
EXTT7=
EXTT8=
EXTT9=
EXTT10=
EXTT11=
EXTT12=
EXTT13=
EXTT14=
EXTT15=
EXTT16=
PLAYORDER=
